<?xml version="1.0" encoding="UTF-8" standalone="no"?>
<svg
   xmlns:dc="http://purl.org/dc/elements/1.1/"
   xmlns:cc="http://creativecommons.org/ns#"
   xmlns:rdf="http://www.w3.org/1999/02/22-rdf-syntax-ns#"
   xmlns:svg="http://www.w3.org/2000/svg"
   xmlns="http://www.w3.org/2000/svg"
   xmlns:sodipodi="http://sodipodi.sourceforge.net/DTD/sodipodi-0.dtd"
   xmlns:inkscape="http://www.inkscape.org/namespaces/inkscape"
   inkscape:version="1.0 (4035a4fb49, 2020-05-01)"
   sodipodi:docname="fighterjet.svg"
   id="svg10"
   version="1.1"
   height="200mm"
   width="200mm">
  <metadata
     id="metadata16">
    <rdf:RDF>
      <cc:Work
         rdf:about="">
        <dc:format>image/svg+xml</dc:format>
        <dc:type
           rdf:resource="http://purl.org/dc/dcmitype/StillImage" />
        <dc:title>Fighter Jet</dc:title>
      </cc:Work>
    </rdf:RDF>
  </metadata>
  <defs
     id="defs14" />
  <sodipodi:namedview
     inkscape:current-layer="svg10"
     inkscape:window-maximized="1"
     inkscape:window-y="-8"
     inkscape:window-x="-8"
     inkscape:cy="354.82169"
     inkscape:cx="219.79901"
     inkscape:zoom="1.1589922"
     width="200mm"
     units="mm"
     showgrid="false"
     id="namedview12"
     inkscape:window-height="1377"
     inkscape:window-width="2560"
     inkscape:pageshadow="2"
     inkscape:pageopacity="0"
     guidetolerance="10"
     gridtolerance="10"
     objecttolerance="10"
     borderopacity="1"
     bordercolor="#666666"
     pagecolor="#ffffff" />
  <title
     id="title2">Fighter Jet</title>
  <g
     transform="matrix(2.677206,0,0,2.677206,-489.84896,-264.25501)"
     id="g8">
    <title
       id="title4">Layer 1</title>
    <g
       id="layer1">
      <path
         d="m 325.3938,373.59741 c -0.43982,-4.07422 -1.12488,-9.30893 -1.52234,-11.63266 l -0.72266,-4.225 -7.25982,-0.26447 -7.25977,-0.26446 -1.34149,-3.58442 c -0.77329,-2.06628 -2.1814,-3.70529 -3.32462,-3.86978 -1.53833,-0.22131 -28.56955,4.63703 -42.1119,7.56882 -1.86808,0.40448 -2.10111,-0.27911 -2.08442,-6.1149 l 0.0187,-6.57022 21.01303,-25.10486 21.013,-25.10479 -0.0477,-7.66831 -0.0477,-7.66827 -33.30274,25.39889 c -18.31645,13.96933 -33.8569,25.38379 -34.53427,25.36545 -2.0635,-0.0559 -8.18617,-19.24283 -7.28534,-22.83041 0.45658,-1.81824 8.03511,-11.4234 18.00931,-22.8252 11.15071,-12.7467 22.96546,-27.87784 33.51755,-42.9257 l 16.29651,-23.23983 0.84726,-10.10128 0.84723,-10.10129 h 6.89291 6.89292 l 0.76428,-4.16585 c 0.42032,-2.29123 0.76425,-7.95973 0.76425,-12.59674 0,-10.26256 3.20828,-43.59915 4.91089,-51.02838 1.45434,-6.34591 9.83743,-29.18155 10.71271,-29.18155 0.8764,0 9.26016,22.84196 10.71063,29.18155 1.74191,7.61339 4.90777,39.66678 4.92197,49.83308 0.007,4.6915 0.35293,10.65125 0.76974,13.24393 l 0.75787,4.71396 h 6.91217 6.91214 l 0.84089,10.10129 0.84085,10.10128 16.35348,23.34527 c 10.36398,14.79499 22.19058,29.99467 32.29086,41.50059 18.22791,20.76462 19.64191,22.62802 19.64191,25.88419 0,3.6748 -6.42401,21.05392 -7.79507,21.08834 -0.67023,0.0168 -16.20325,-11.39767 -34.51792,-25.3655 l -33.29928,-25.39609 -0.0323,7.63211 -0.0323,7.63211 21.013,25.1048 21.013,25.10482 v 6.60642 c 0,5.8667 -0.2355,6.55545 -2.10318,6.15109 -9.50015,-2.0567 -39.9772,-7.7467 -41.49325,-7.7467 -1.87403,0 -2.30518,0.63895 -3.78647,5.61185 -0.70801,2.37683 -1.02103,2.4692 -8.36957,2.4692 h -7.6341 l -0.72976,4.26499 c -0.40137,2.34576 -1.08963,7.59842 -1.52945,11.67264 -0.43979,4.07415 -1.18494,7.40759 -1.65589,7.40759 -0.47094,0 -1.21606,-3.33344 -1.65588,-7.40759 z"
         id="path1368"
         fill="#000000" />
    </g>
  </g>
</svg>
